<svg width="1440" height="570" viewBox="0 0 1440 570" fill="none" xmlns="http://www.w3.org/2000/svg">
<g clip-path="url(#clip0_1_1748)">
<path d="M-158.235 47.5156V62.0996H-146.991V70.0596H-158.235V107.41C-158.235 109.822 -157.734 111.641 -156.732 112.865C-155.73 114.053 -154.023 114.646 -151.611 114.646C-150.424 114.646 -148.791 114.424 -146.713 113.979V122.328C-149.422 123.07 -152.057 123.441 -154.617 123.441C-159.219 123.441 -162.688 122.05 -165.026 119.267C-167.364 116.483 -168.533 112.531 -168.533 107.41V70.0596H-179.499V62.0996H-168.533V47.5156H-158.235ZM-124.614 69.3916C-120.05 63.7881 -114.112 60.9863 -106.802 60.9863C-94.0732 60.9863 -87.6533 68.167 -87.542 82.5283V122.328H-97.8398V82.4727C-97.877 78.1309 -98.8789 74.9209 -100.846 72.8428C-102.775 70.7646 -105.8 69.7256 -109.919 69.7256C-113.259 69.7256 -116.19 70.6162 -118.714 72.3975C-121.237 74.1787 -123.204 76.5166 -124.614 79.4111V122.328H-134.912V36.8281H-124.614V69.3916ZM-60.9346 122.328H-71.2324V62.0996H-60.9346V122.328ZM-72.0674 46.124C-72.0674 44.4541 -71.5664 43.0439 -70.5645 41.8936C-69.5254 40.7432 -68.0039 40.168 -66 40.168C-63.9961 40.168 -62.4746 40.7432 -61.4355 41.8936C-60.3965 43.0439 -59.877 44.4541 -59.877 46.124C-59.877 47.7939 -60.3965 49.1855 -61.4355 50.2988C-62.4746 51.4121 -63.9961 51.9688 -66 51.9688C-68.0039 51.9688 -69.5254 51.4121 -70.5645 50.2988C-71.5664 49.1855 -72.0674 47.7939 -72.0674 46.124ZM-34.6611 62.0996L-34.3271 69.6699C-29.7256 63.8809 -23.7139 60.9863 -16.292 60.9863C-3.56348 60.9863 2.85645 68.167 2.96777 82.5283V122.328H-7.33008V82.4727C-7.36719 78.1309 -8.36914 74.9209 -10.3359 72.8428C-12.2656 70.7646 -15.29 69.7256 -19.4092 69.7256C-22.749 69.7256 -25.6807 70.6162 -28.2041 72.3975C-30.7275 74.1787 -32.6943 76.5166 -34.1045 79.4111V122.328H-44.4023V62.0996H-34.6611ZM35.3086 94.4404L28.8516 101.176V122.328H18.5537V36.8281H28.8516V88.54L34.3623 81.916L53.1211 62.0996H65.6455L42.2109 87.2598L68.373 122.328H56.2939L35.3086 94.4404ZM155.543 92.8818C155.543 102.085 153.428 109.488 149.197 115.092C144.967 120.658 139.289 123.441 132.164 123.441C124.557 123.441 118.675 120.751 114.519 115.37L114.018 122.328H104.555V36.8281H114.853V68.7236C119.009 63.5654 124.742 60.9863 132.053 60.9863C139.363 60.9863 145.097 63.751 149.253 69.2803C153.446 74.8096 155.543 82.3799 155.543 91.9912V92.8818ZM145.245 91.7129C145.245 84.6992 143.891 79.2812 141.182 75.459C138.473 71.6367 134.576 69.7256 129.492 69.7256C122.701 69.7256 117.821 72.8799 114.853 79.1885V105.239C118.007 111.548 122.924 114.702 129.604 114.702C134.539 114.702 138.38 112.791 141.126 108.969C143.872 105.146 145.245 99.3945 145.245 91.7129ZM179.757 122.328H169.459V62.0996H179.757V122.328ZM168.624 46.124C168.624 44.4541 169.125 43.0439 170.127 41.8936C171.166 40.7432 172.688 40.168 174.691 40.168C176.695 40.168 178.217 40.7432 179.256 41.8936C180.295 43.0439 180.814 44.4541 180.814 46.124C180.814 47.7939 180.295 49.1855 179.256 50.2988C178.217 51.4121 176.695 51.9688 174.691 51.9688C172.688 51.9688 171.166 51.4121 170.127 50.2988C169.125 49.1855 168.624 47.7939 168.624 46.124ZM193.84 91.7129C193.84 82.3242 196.011 74.8652 200.353 69.3359C204.694 63.7695 210.446 60.9863 217.608 60.9863C224.956 60.9863 230.689 63.584 234.809 68.7793L235.31 62.0996H244.717V120.881C244.717 128.674 242.397 134.815 237.759 139.306C233.157 143.796 226.96 146.041 219.167 146.041C214.825 146.041 210.576 145.113 206.42 143.258C202.264 141.402 199.091 138.86 196.901 135.632L202.245 129.453C206.661 134.908 212.061 137.636 218.443 137.636C223.453 137.636 227.35 136.226 230.133 133.405C232.953 130.585 234.363 126.614 234.363 121.493V116.316C230.244 121.066 224.622 123.441 217.497 123.441C210.446 123.441 204.731 120.603 200.353 114.925C196.011 109.247 193.84 101.51 193.84 91.7129ZM204.193 92.8818C204.193 99.6729 205.585 105.017 208.368 108.913C211.151 112.772 215.048 114.702 220.058 114.702C226.552 114.702 231.32 111.752 234.363 105.852V78.3535C231.209 72.6016 226.478 69.7256 220.169 69.7256C215.159 69.7256 211.244 71.6738 208.424 75.5703C205.604 79.4668 204.193 85.2373 204.193 92.8818ZM260.525 116.929C260.525 115.147 261.045 113.663 262.084 112.476C263.16 111.288 264.756 110.694 266.871 110.694C268.986 110.694 270.582 111.288 271.658 112.476C272.771 113.663 273.328 115.147 273.328 116.929C273.328 118.636 272.771 120.064 271.658 121.215C270.582 122.365 268.986 122.94 266.871 122.94C264.756 122.94 263.16 122.365 262.084 121.215C261.045 120.064 260.525 118.636 260.525 116.929Z" fill="#888888"/>
<path d="M390.765 47.5156V62.0996H402.009V70.0596H390.765V107.41C390.765 109.822 391.266 111.641 392.268 112.865C393.27 114.053 394.977 114.646 397.389 114.646C398.576 114.646 400.209 114.424 402.287 113.979V122.328C399.578 123.07 396.943 123.441 394.383 123.441C389.781 123.441 386.312 122.05 383.974 119.267C381.636 116.483 380.467 112.531 380.467 107.41V70.0596H369.501V62.0996H380.467V47.5156H390.765ZM424.386 69.3916C428.95 63.7881 434.888 60.9863 442.198 60.9863C454.927 60.9863 461.347 68.167 461.458 82.5283V122.328H451.16V82.4727C451.123 78.1309 450.121 74.9209 448.154 72.8428C446.225 70.7646 443.2 69.7256 439.081 69.7256C435.741 69.7256 432.81 70.6162 430.286 72.3975C427.763 74.1787 425.796 76.5166 424.386 79.4111V122.328H414.088V36.8281H424.386V69.3916ZM488.065 122.328H477.768V62.0996H488.065V122.328ZM476.933 46.124C476.933 44.4541 477.434 43.0439 478.436 41.8936C479.475 40.7432 480.996 40.168 483 40.168C485.004 40.168 486.525 40.7432 487.564 41.8936C488.604 43.0439 489.123 44.4541 489.123 46.124C489.123 47.7939 488.604 49.1855 487.564 50.2988C486.525 51.4121 485.004 51.9688 483 51.9688C480.996 51.9688 479.475 51.4121 478.436 50.2988C477.434 49.1855 476.933 47.7939 476.933 46.124ZM514.339 62.0996L514.673 69.6699C519.274 63.8809 525.286 60.9863 532.708 60.9863C545.437 60.9863 551.856 68.167 551.968 82.5283V122.328H541.67V82.4727C541.633 78.1309 540.631 74.9209 538.664 72.8428C536.734 70.7646 533.71 69.7256 529.591 69.7256C526.251 69.7256 523.319 70.6162 520.796 72.3975C518.272 74.1787 516.306 76.5166 514.896 79.4111V122.328H504.598V62.0996H514.339ZM584.309 94.4404L577.852 101.176V122.328H567.554V36.8281H577.852V88.54L583.362 81.916L602.121 62.0996H614.646L591.211 87.2598L617.373 122.328H605.294L584.309 94.4404ZM704.543 92.8818C704.543 102.085 702.428 109.488 698.197 115.092C693.967 120.658 688.289 123.441 681.164 123.441C673.557 123.441 667.675 120.751 663.519 115.37L663.018 122.328H653.555V36.8281H663.853V68.7236C668.009 63.5654 673.742 60.9863 681.053 60.9863C688.363 60.9863 694.097 63.751 698.253 69.2803C702.446 74.8096 704.543 82.3799 704.543 91.9912V92.8818ZM694.245 91.7129C694.245 84.6992 692.891 79.2812 690.182 75.459C687.473 71.6367 683.576 69.7256 678.492 69.7256C671.701 69.7256 666.821 72.8799 663.853 79.1885V105.239C667.007 111.548 671.924 114.702 678.604 114.702C683.539 114.702 687.38 112.791 690.126 108.969C692.872 105.146 694.245 99.3945 694.245 91.7129ZM728.757 122.328H718.459V62.0996H728.757V122.328ZM717.624 46.124C717.624 44.4541 718.125 43.0439 719.127 41.8936C720.166 40.7432 721.688 40.168 723.691 40.168C725.695 40.168 727.217 40.7432 728.256 41.8936C729.295 43.0439 729.814 44.4541 729.814 46.124C729.814 47.7939 729.295 49.1855 728.256 50.2988C727.217 51.4121 725.695 51.9688 723.691 51.9688C721.688 51.9688 720.166 51.4121 719.127 50.2988C718.125 49.1855 717.624 47.7939 717.624 46.124ZM742.84 91.7129C742.84 82.3242 745.011 74.8652 749.353 69.3359C753.694 63.7695 759.446 60.9863 766.608 60.9863C773.956 60.9863 779.689 63.584 783.809 68.7793L784.31 62.0996H793.717V120.881C793.717 128.674 791.397 134.815 786.759 139.306C782.157 143.796 775.96 146.041 768.167 146.041C763.825 146.041 759.576 145.113 755.42 143.258C751.264 141.402 748.091 138.86 745.901 135.632L751.245 129.453C755.661 134.908 761.061 137.636 767.443 137.636C772.453 137.636 776.35 136.226 779.133 133.405C781.953 130.585 783.363 126.614 783.363 121.493V116.316C779.244 121.066 773.622 123.441 766.497 123.441C759.446 123.441 753.731 120.603 749.353 114.925C745.011 109.247 742.84 101.51 742.84 91.7129ZM753.193 92.8818C753.193 99.6729 754.585 105.017 757.368 108.913C760.151 112.772 764.048 114.702 769.058 114.702C775.552 114.702 780.32 111.752 783.363 105.852V78.3535C780.209 72.6016 775.478 69.7256 769.169 69.7256C764.159 69.7256 760.244 71.6738 757.424 75.5703C754.604 79.4668 753.193 85.2373 753.193 92.8818ZM809.525 116.929C809.525 115.147 810.045 113.663 811.084 112.476C812.16 111.288 813.756 110.694 815.871 110.694C817.986 110.694 819.582 111.288 820.658 112.476C821.771 113.663 822.328 115.147 822.328 116.929C822.328 118.636 821.771 120.064 820.658 121.215C819.582 122.365 817.986 122.94 815.871 122.94C813.756 122.94 812.16 122.365 811.084 121.215C810.045 120.064 809.525 118.636 809.525 116.929Z" fill="black"/>
<path d="M939.765 47.5156V62.0996H951.009V70.0596H939.765V107.41C939.765 109.822 940.266 111.641 941.268 112.865C942.27 114.053 943.977 114.646 946.389 114.646C947.576 114.646 949.209 114.424 951.287 113.979V122.328C948.578 123.07 945.943 123.441 943.383 123.441C938.781 123.441 935.312 122.05 932.974 119.267C930.636 116.483 929.467 112.531 929.467 107.41V70.0596H918.501V62.0996H929.467V47.5156H939.765ZM973.386 69.3916C977.95 63.7881 983.888 60.9863 991.198 60.9863C1003.93 60.9863 1010.35 68.167 1010.46 82.5283V122.328H1000.16V82.4727C1000.12 78.1309 999.121 74.9209 997.154 72.8428C995.225 70.7646 992.2 69.7256 988.081 69.7256C984.741 69.7256 981.81 70.6162 979.286 72.3975C976.763 74.1787 974.796 76.5166 973.386 79.4111V122.328H963.088V36.8281H973.386V69.3916ZM1037.07 122.328H1026.77V62.0996H1037.07V122.328ZM1025.93 46.124C1025.93 44.4541 1026.43 43.0439 1027.44 41.8936C1028.47 40.7432 1030 40.168 1032 40.168C1034 40.168 1035.53 40.7432 1036.56 41.8936C1037.6 43.0439 1038.12 44.4541 1038.12 46.124C1038.12 47.7939 1037.6 49.1855 1036.56 50.2988C1035.53 51.4121 1034 51.9688 1032 51.9688C1030 51.9688 1028.47 51.4121 1027.44 50.2988C1026.43 49.1855 1025.93 47.7939 1025.93 46.124ZM1063.34 62.0996L1063.67 69.6699C1068.27 63.8809 1074.29 60.9863 1081.71 60.9863C1094.44 60.9863 1100.86 68.167 1100.97 82.5283V122.328H1090.67V82.4727C1090.63 78.1309 1089.63 74.9209 1087.66 72.8428C1085.73 70.7646 1082.71 69.7256 1078.59 69.7256C1075.25 69.7256 1072.32 70.6162 1069.8 72.3975C1067.27 74.1787 1065.31 76.5166 1063.9 79.4111V122.328H1053.6V62.0996H1063.34ZM1133.31 94.4404L1126.85 101.176V122.328H1116.55V36.8281H1126.85V88.54L1132.36 81.916L1151.12 62.0996H1163.65L1140.21 87.2598L1166.37 122.328H1154.29L1133.31 94.4404ZM1253.54 92.8818C1253.54 102.085 1251.43 109.488 1247.2 115.092C1242.97 120.658 1237.29 123.441 1230.16 123.441C1222.56 123.441 1216.67 120.751 1212.52 115.37L1212.02 122.328H1202.55V36.8281H1212.85V68.7236C1217.01 63.5654 1222.74 60.9863 1230.05 60.9863C1237.36 60.9863 1243.1 63.751 1247.25 69.2803C1251.45 74.8096 1253.54 82.3799 1253.54 91.9912V92.8818ZM1243.25 91.7129C1243.25 84.6992 1241.89 79.2812 1239.18 75.459C1236.47 71.6367 1232.58 69.7256 1227.49 69.7256C1220.7 69.7256 1215.82 72.8799 1212.85 79.1885V105.239C1216.01 111.548 1220.92 114.702 1227.6 114.702C1232.54 114.702 1236.38 112.791 1239.13 108.969C1241.87 105.146 1243.25 99.3945 1243.25 91.7129ZM1277.76 122.328H1267.46V62.0996H1277.76V122.328ZM1266.62 46.124C1266.62 44.4541 1267.12 43.0439 1268.13 41.8936C1269.17 40.7432 1270.69 40.168 1272.69 40.168C1274.7 40.168 1276.22 40.7432 1277.26 41.8936C1278.29 43.0439 1278.81 44.4541 1278.81 46.124C1278.81 47.7939 1278.29 49.1855 1277.26 50.2988C1276.22 51.4121 1274.7 51.9688 1272.69 51.9688C1270.69 51.9688 1269.17 51.4121 1268.13 50.2988C1267.12 49.1855 1266.62 47.7939 1266.62 46.124ZM1291.84 91.7129C1291.84 82.3242 1294.01 74.8652 1298.35 69.3359C1302.69 63.7695 1308.45 60.9863 1315.61 60.9863C1322.96 60.9863 1328.69 63.584 1332.81 68.7793L1333.31 62.0996H1342.72V120.881C1342.72 128.674 1340.4 134.815 1335.76 139.306C1331.16 143.796 1324.96 146.041 1317.17 146.041C1312.83 146.041 1308.58 145.113 1304.42 143.258C1300.26 141.402 1297.09 138.86 1294.9 135.632L1300.25 129.453C1304.66 134.908 1310.06 137.636 1316.44 137.636C1321.45 137.636 1325.35 136.226 1328.13 133.405C1330.95 130.585 1332.36 126.614 1332.36 121.493V116.316C1328.24 121.066 1322.62 123.441 1315.5 123.441C1308.45 123.441 1302.73 120.603 1298.35 114.925C1294.01 109.247 1291.84 101.51 1291.84 91.7129ZM1302.19 92.8818C1302.19 99.6729 1303.58 105.017 1306.37 108.913C1309.15 112.772 1313.05 114.702 1318.06 114.702C1324.55 114.702 1329.32 111.752 1332.36 105.852V78.3535C1329.21 72.6016 1324.48 69.7256 1318.17 69.7256C1313.16 69.7256 1309.24 71.6738 1306.42 75.5703C1303.6 79.4668 1302.19 85.2373 1302.19 92.8818ZM1358.53 116.929C1358.53 115.147 1359.04 113.663 1360.08 112.476C1361.16 111.288 1362.76 110.694 1364.87 110.694C1366.99 110.694 1368.58 111.288 1369.66 112.476C1370.77 113.663 1371.33 115.147 1371.33 116.929C1371.33 118.636 1370.77 120.064 1369.66 121.215C1368.58 122.365 1366.99 122.94 1364.87 122.94C1362.76 122.94 1361.16 122.365 1360.08 121.215C1359.04 120.064 1358.53 118.636 1358.53 116.929Z" fill="#888888"/>
</g>
<g clip-path="url(#clip1_1_1748)">
<path d="M-314.139 296.353C-314.139 293.569 -315.196 291.417 -317.312 289.896C-319.39 288.337 -323.045 287.001 -328.277 285.888C-333.473 284.774 -337.61 283.438 -340.69 281.88C-343.733 280.321 -345.997 278.466 -347.481 276.313C-348.929 274.161 -349.652 271.601 -349.652 268.632C-349.652 263.696 -347.574 259.521 -343.418 256.107C-339.225 252.693 -333.881 250.986 -327.387 250.986C-320.559 250.986 -315.029 252.749 -310.799 256.274C-306.531 259.8 -304.397 264.309 -304.397 269.801H-314.751C-314.751 266.98 -315.957 264.55 -318.369 262.509C-320.744 260.468 -323.75 259.447 -327.387 259.447C-331.135 259.447 -334.066 260.264 -336.182 261.896C-338.297 263.529 -339.354 265.663 -339.354 268.298C-339.354 270.784 -338.371 272.658 -336.404 273.92C-334.438 275.182 -330.894 276.388 -325.772 277.538C-320.614 278.688 -316.439 280.062 -313.248 281.657C-310.057 283.253 -307.7 285.183 -306.179 287.446C-304.62 289.673 -303.841 292.4 -303.841 295.629C-303.841 301.01 -305.993 305.333 -310.298 308.599C-314.603 311.827 -320.188 313.441 -327.053 313.441C-331.877 313.441 -336.145 312.588 -339.855 310.881C-343.566 309.174 -346.479 306.799 -348.595 303.756C-350.673 300.676 -351.712 297.354 -351.712 293.792H-341.414C-341.229 297.243 -339.855 299.989 -337.295 302.03C-334.697 304.034 -331.283 305.036 -327.053 305.036C-323.156 305.036 -320.039 304.257 -317.701 302.698C-315.326 301.103 -314.139 298.987 -314.139 296.353ZM-276.454 237.516V252.1H-265.21V260.06H-276.454V297.41C-276.454 299.822 -275.953 301.641 -274.951 302.865C-273.949 304.053 -272.242 304.646 -269.83 304.646C-268.643 304.646 -267.01 304.424 -264.932 303.979V312.328C-267.641 313.07 -270.275 313.441 -272.836 313.441C-277.438 313.441 -280.907 312.05 -283.245 309.267C-285.583 306.483 -286.752 302.531 -286.752 297.41V260.06H-297.718V252.1H-286.752V237.516H-276.454ZM-215.947 312.328C-216.541 311.141 -217.023 309.025 -217.395 305.982C-222.182 310.955 -227.896 313.441 -234.539 313.441C-240.477 313.441 -245.356 311.771 -249.179 308.432C-252.964 305.055 -254.856 300.787 -254.856 295.629C-254.856 289.357 -252.481 284.496 -247.731 281.045C-242.944 277.557 -236.228 275.812 -227.581 275.812H-217.562V271.081C-217.562 267.481 -218.638 264.624 -220.79 262.509C-222.942 260.356 -226.115 259.28 -230.309 259.28C-233.982 259.28 -237.062 260.208 -239.549 262.063C-242.035 263.919 -243.278 266.164 -243.278 268.799H-253.632C-253.632 265.793 -252.574 262.898 -250.459 260.115C-248.307 257.295 -245.412 255.068 -241.775 253.436C-238.102 251.803 -234.075 250.986 -229.696 250.986C-222.757 250.986 -217.32 252.73 -213.387 256.219C-209.453 259.67 -207.412 264.438 -207.264 270.524V298.245C-207.264 303.774 -206.559 308.172 -205.148 311.438V312.328H-215.947ZM-233.036 304.479C-229.808 304.479 -226.746 303.645 -223.852 301.975C-220.957 300.305 -218.86 298.134 -217.562 295.462V283.104H-225.633C-238.25 283.104 -244.559 286.797 -244.559 294.182C-244.559 297.41 -243.482 299.934 -241.33 301.752C-239.178 303.57 -236.413 304.479 -233.036 304.479ZM-162.009 261.34C-163.567 261.08 -165.256 260.95 -167.074 260.95C-173.828 260.95 -178.411 263.826 -180.823 269.578V312.328H-191.121V252.1H-181.102L-180.935 259.058C-177.558 253.677 -172.771 250.986 -166.573 250.986C-164.569 250.986 -163.048 251.246 -162.009 251.766V261.34ZM-135.735 237.516V252.1H-124.491V260.06H-135.735V297.41C-135.735 299.822 -135.234 301.641 -134.232 302.865C-133.23 304.053 -131.523 304.646 -129.111 304.646C-127.924 304.646 -126.291 304.424 -124.213 303.979V312.328C-126.922 313.07 -129.557 313.441 -132.117 313.441C-136.719 313.441 -140.188 312.05 -142.526 309.267C-144.864 306.483 -146.033 302.531 -146.033 297.41V260.06H-156.999V252.1H-146.033V237.516H-135.735ZM-49.0664 296.353C-49.0664 293.569 -50.124 291.417 -52.2393 289.896C-54.3174 288.337 -57.9727 287.001 -63.2051 285.888C-68.4004 284.774 -72.5381 283.438 -75.6182 281.88C-78.6611 280.321 -80.9248 278.466 -82.4092 276.313C-83.8564 274.161 -84.5801 271.601 -84.5801 268.632C-84.5801 263.696 -82.502 259.521 -78.3457 256.107C-74.1523 252.693 -68.8086 250.986 -62.3145 250.986C-55.4863 250.986 -49.957 252.749 -45.7266 256.274C-41.459 259.8 -39.3252 264.309 -39.3252 269.801H-49.6787C-49.6787 266.98 -50.8848 264.55 -53.2969 262.509C-55.6719 260.468 -58.6777 259.447 -62.3145 259.447C-66.0625 259.447 -68.9941 260.264 -71.1094 261.896C-73.2246 263.529 -74.2822 265.663 -74.2822 268.298C-74.2822 270.784 -73.2988 272.658 -71.332 273.92C-69.3652 275.182 -65.8213 276.388 -60.7002 277.538C-55.542 278.688 -51.3672 280.062 -48.1758 281.657C-44.9844 283.253 -42.6279 285.183 -41.1064 287.446C-39.5479 289.673 -38.7686 292.4 -38.7686 295.629C-38.7686 301.01 -40.9209 305.333 -45.2256 308.599C-49.5303 311.827 -55.1152 313.441 -61.9805 313.441C-66.8047 313.441 -71.0723 312.588 -74.7832 310.881C-78.4941 309.174 -81.4072 306.799 -83.5225 303.756C-85.6006 300.676 -86.6396 297.354 -86.6396 293.792H-76.3418C-76.1562 297.243 -74.7832 299.989 -72.2227 302.03C-69.625 304.034 -66.2109 305.036 -61.9805 305.036C-58.084 305.036 -54.9668 304.257 -52.6289 302.698C-50.2539 301.103 -49.0664 298.987 -49.0664 296.353ZM-15.668 252.1L-15.3896 258.779C-10.9736 253.584 -5.01758 250.986 2.47852 250.986C10.9023 250.986 16.6357 254.215 19.6787 260.672C21.6826 257.777 24.2803 255.439 27.4717 253.658C30.7002 251.877 34.5039 250.986 38.8828 250.986C52.0938 250.986 58.8105 257.981 59.0332 271.972V312.328H48.7354V272.584C48.7354 268.279 47.752 265.069 45.7852 262.954C43.8184 260.802 40.5156 259.726 35.877 259.726C32.0547 259.726 28.8818 260.876 26.3584 263.177C23.835 265.44 22.3691 268.502 21.9609 272.361V312.328H11.6074V272.862C11.6074 264.104 7.32129 259.726 -1.25098 259.726C-8.00488 259.726 -12.625 262.602 -15.1113 268.354V312.328H-25.4092V252.1H-15.668ZM111.803 312.328C111.209 311.141 110.727 309.025 110.355 305.982C105.568 310.955 99.8535 313.441 93.2109 313.441C87.2734 313.441 82.3936 311.771 78.5713 308.432C74.7861 305.055 72.8936 300.787 72.8936 295.629C72.8936 289.357 75.2686 284.496 80.0186 281.045C84.8057 277.557 91.5225 275.812 100.169 275.812H110.188V271.081C110.188 267.481 109.112 264.624 106.96 262.509C104.808 260.356 101.635 259.28 97.4414 259.28C93.7676 259.28 90.6875 260.208 88.2012 262.063C85.7148 263.919 84.4717 266.164 84.4717 268.799H74.1182C74.1182 265.793 75.1758 262.898 77.291 260.115C79.4434 257.295 82.3379 255.068 85.9746 253.436C89.6484 251.803 93.6748 250.986 98.0537 250.986C104.993 250.986 110.43 252.73 114.363 256.219C118.297 259.67 120.338 264.438 120.486 270.524V298.245C120.486 303.774 121.191 308.172 122.602 311.438V312.328H111.803ZM94.7139 304.479C97.9424 304.479 101.004 303.645 103.898 301.975C106.793 300.305 108.89 298.134 110.188 295.462V283.104H102.117C89.5 283.104 83.1914 286.797 83.1914 294.182C83.1914 297.41 84.2676 299.934 86.4199 301.752C88.5723 303.57 91.3369 304.479 94.7139 304.479ZM147.817 312.328H137.52V226.828H147.817V312.328ZM175.538 312.328H165.24V226.828H175.538V312.328ZM192.293 306.929C192.293 305.147 192.812 303.663 193.852 302.476C194.928 301.288 196.523 300.694 198.639 300.694C200.754 300.694 202.35 301.288 203.426 302.476C204.539 303.663 205.096 305.147 205.096 306.929C205.096 308.636 204.539 310.064 203.426 311.215C202.35 312.365 200.754 312.94 198.639 312.94C196.523 312.94 194.928 312.365 193.852 311.215C192.812 310.064 192.293 308.636 192.293 306.929Z" fill="#888888"/>
<path d="M330.861 296.353C330.861 293.569 329.804 291.417 327.688 289.896C325.61 288.337 321.955 287.001 316.723 285.888C311.527 284.774 307.39 283.438 304.31 281.88C301.267 280.321 299.003 278.466 297.519 276.313C296.071 274.161 295.348 271.601 295.348 268.632C295.348 263.696 297.426 259.521 301.582 256.107C305.775 252.693 311.119 250.986 317.613 250.986C324.441 250.986 329.971 252.749 334.201 256.274C338.469 259.8 340.603 264.309 340.603 269.801H330.249C330.249 266.98 329.043 264.55 326.631 262.509C324.256 260.468 321.25 259.447 317.613 259.447C313.865 259.447 310.934 260.264 308.818 261.896C306.703 263.529 305.646 265.663 305.646 268.298C305.646 270.784 306.629 272.658 308.596 273.92C310.562 275.182 314.106 276.388 319.228 277.538C324.386 278.688 328.561 280.062 331.752 281.657C334.943 283.253 337.3 285.183 338.821 287.446C340.38 289.673 341.159 292.4 341.159 295.629C341.159 301.01 339.007 305.333 334.702 308.599C330.397 311.827 324.812 313.441 317.947 313.441C313.123 313.441 308.855 312.588 305.145 310.881C301.434 309.174 298.521 306.799 296.405 303.756C294.327 300.676 293.288 297.354 293.288 293.792H303.586C303.771 297.243 305.145 299.989 307.705 302.03C310.303 304.034 313.717 305.036 317.947 305.036C321.844 305.036 324.961 304.257 327.299 302.698C329.674 301.103 330.861 298.987 330.861 296.353ZM368.546 237.516V252.1H379.79V260.06H368.546V297.41C368.546 299.822 369.047 301.641 370.049 302.865C371.051 304.053 372.758 304.646 375.17 304.646C376.357 304.646 377.99 304.424 380.068 303.979V312.328C377.359 313.07 374.725 313.441 372.164 313.441C367.562 313.441 364.093 312.05 361.755 309.267C359.417 306.483 358.248 302.531 358.248 297.41V260.06H347.282V252.1H358.248V237.516H368.546ZM429.053 312.328C428.459 311.141 427.977 309.025 427.605 305.982C422.818 310.955 417.104 313.441 410.461 313.441C404.523 313.441 399.644 311.771 395.821 308.432C392.036 305.055 390.144 300.787 390.144 295.629C390.144 289.357 392.519 284.496 397.269 281.045C402.056 277.557 408.772 275.812 417.419 275.812H427.438V271.081C427.438 267.481 426.362 264.624 424.21 262.509C422.058 260.356 418.885 259.28 414.691 259.28C411.018 259.28 407.938 260.208 405.451 262.063C402.965 263.919 401.722 266.164 401.722 268.799H391.368C391.368 265.793 392.426 262.898 394.541 260.115C396.693 257.295 399.588 255.068 403.225 253.436C406.898 251.803 410.925 250.986 415.304 250.986C422.243 250.986 427.68 252.73 431.613 256.219C435.547 259.67 437.588 264.438 437.736 270.524V298.245C437.736 303.774 438.441 308.172 439.852 311.438V312.328H429.053ZM411.964 304.479C415.192 304.479 418.254 303.645 421.148 301.975C424.043 300.305 426.14 298.134 427.438 295.462V283.104H419.367C406.75 283.104 400.441 286.797 400.441 294.182C400.441 297.41 401.518 299.934 403.67 301.752C405.822 303.57 408.587 304.479 411.964 304.479ZM482.991 261.34C481.433 261.08 479.744 260.95 477.926 260.95C471.172 260.95 466.589 263.826 464.177 269.578V312.328H453.879V252.1H463.898L464.065 259.058C467.442 253.677 472.229 250.986 478.427 250.986C480.431 250.986 481.952 251.246 482.991 251.766V261.34ZM509.265 237.516V252.1H520.509V260.06H509.265V297.41C509.265 299.822 509.766 301.641 510.768 302.865C511.77 304.053 513.477 304.646 515.889 304.646C517.076 304.646 518.709 304.424 520.787 303.979V312.328C518.078 313.07 515.443 313.441 512.883 313.441C508.281 313.441 504.812 312.05 502.474 309.267C500.136 306.483 498.967 302.531 498.967 297.41V260.06H488.001V252.1H498.967V237.516H509.265ZM595.934 296.353C595.934 293.569 594.876 291.417 592.761 289.896C590.683 288.337 587.027 287.001 581.795 285.888C576.6 284.774 572.462 283.438 569.382 281.88C566.339 280.321 564.075 278.466 562.591 276.313C561.144 274.161 560.42 271.601 560.42 268.632C560.42 263.696 562.498 259.521 566.654 256.107C570.848 252.693 576.191 250.986 582.686 250.986C589.514 250.986 595.043 252.749 599.273 256.274C603.541 259.8 605.675 264.309 605.675 269.801H595.321C595.321 266.98 594.115 264.55 591.703 262.509C589.328 260.468 586.322 259.447 582.686 259.447C578.938 259.447 576.006 260.264 573.891 261.896C571.775 263.529 570.718 265.663 570.718 268.298C570.718 270.784 571.701 272.658 573.668 273.92C575.635 275.182 579.179 276.388 584.3 277.538C589.458 278.688 593.633 280.062 596.824 281.657C600.016 283.253 602.372 285.183 603.894 287.446C605.452 289.673 606.231 292.4 606.231 295.629C606.231 301.01 604.079 305.333 599.774 308.599C595.47 311.827 589.885 313.441 583.02 313.441C578.195 313.441 573.928 312.588 570.217 310.881C566.506 309.174 563.593 306.799 561.478 303.756C559.399 300.676 558.36 297.354 558.36 293.792H568.658C568.844 297.243 570.217 299.989 572.777 302.03C575.375 304.034 578.789 305.036 583.02 305.036C586.916 305.036 590.033 304.257 592.371 302.698C594.746 301.103 595.934 298.987 595.934 296.353ZM629.332 252.1L629.61 258.779C634.026 253.584 639.982 250.986 647.479 250.986C655.902 250.986 661.636 254.215 664.679 260.672C666.683 257.777 669.28 255.439 672.472 253.658C675.7 251.877 679.504 250.986 683.883 250.986C697.094 250.986 703.811 257.981 704.033 271.972V312.328H693.735V272.584C693.735 268.279 692.752 265.069 690.785 262.954C688.818 260.802 685.516 259.726 680.877 259.726C677.055 259.726 673.882 260.876 671.358 263.177C668.835 265.44 667.369 268.502 666.961 272.361V312.328H656.607V272.862C656.607 264.104 652.321 259.726 643.749 259.726C636.995 259.726 632.375 262.602 629.889 268.354V312.328H619.591V252.1H629.332ZM756.803 312.328C756.209 311.141 755.727 309.025 755.355 305.982C750.568 310.955 744.854 313.441 738.211 313.441C732.273 313.441 727.394 311.771 723.571 308.432C719.786 305.055 717.894 300.787 717.894 295.629C717.894 289.357 720.269 284.496 725.019 281.045C729.806 277.557 736.522 275.812 745.169 275.812H755.188V271.081C755.188 267.481 754.112 264.624 751.96 262.509C749.808 260.356 746.635 259.28 742.441 259.28C738.768 259.28 735.688 260.208 733.201 262.063C730.715 263.919 729.472 266.164 729.472 268.799H719.118C719.118 265.793 720.176 262.898 722.291 260.115C724.443 257.295 727.338 255.068 730.975 253.436C734.648 251.803 738.675 250.986 743.054 250.986C749.993 250.986 755.43 252.73 759.363 256.219C763.297 259.67 765.338 264.438 765.486 270.524V298.245C765.486 303.774 766.191 308.172 767.602 311.438V312.328H756.803ZM739.714 304.479C742.942 304.479 746.004 303.645 748.898 301.975C751.793 300.305 753.89 298.134 755.188 295.462V283.104H747.117C734.5 283.104 728.191 286.797 728.191 294.182C728.191 297.41 729.268 299.934 731.42 301.752C733.572 303.57 736.337 304.479 739.714 304.479ZM792.817 312.328H782.52V226.828H792.817V312.328ZM820.538 312.328H810.24V226.828H820.538V312.328ZM837.293 306.929C837.293 305.147 837.812 303.663 838.852 302.476C839.928 301.288 841.523 300.694 843.639 300.694C845.754 300.694 847.35 301.288 848.426 302.476C849.539 303.663 850.096 305.147 850.096 306.929C850.096 308.636 849.539 310.064 848.426 311.215C847.35 312.365 845.754 312.94 843.639 312.94C841.523 312.94 839.928 312.365 838.852 311.215C837.812 310.064 837.293 308.636 837.293 306.929Z" fill="#888888"/>
<path d="M975.861 296.353C975.861 293.569 974.804 291.417 972.688 289.896C970.61 288.337 966.955 287.001 961.723 285.888C956.527 284.774 952.39 283.438 949.31 281.88C946.267 280.321 944.003 278.466 942.519 276.313C941.071 274.161 940.348 271.601 940.348 268.632C940.348 263.696 942.426 259.521 946.582 256.107C950.775 252.693 956.119 250.986 962.613 250.986C969.441 250.986 974.971 252.749 979.201 256.274C983.469 259.8 985.603 264.309 985.603 269.801H975.249C975.249 266.98 974.043 264.55 971.631 262.509C969.256 260.468 966.25 259.447 962.613 259.447C958.865 259.447 955.934 260.264 953.818 261.896C951.703 263.529 950.646 265.663 950.646 268.298C950.646 270.784 951.629 272.658 953.596 273.92C955.562 275.182 959.106 276.388 964.228 277.538C969.386 278.688 973.561 280.062 976.752 281.657C979.943 283.253 982.3 285.183 983.821 287.446C985.38 289.673 986.159 292.4 986.159 295.629C986.159 301.01 984.007 305.333 979.702 308.599C975.397 311.827 969.812 313.441 962.947 313.441C958.123 313.441 953.855 312.588 950.145 310.881C946.434 309.174 943.521 306.799 941.405 303.756C939.327 300.676 938.288 297.354 938.288 293.792H948.586C948.771 297.243 950.145 299.989 952.705 302.03C955.303 304.034 958.717 305.036 962.947 305.036C966.844 305.036 969.961 304.257 972.299 302.698C974.674 301.103 975.861 298.987 975.861 296.353ZM1013.55 237.516V252.1H1024.79V260.06H1013.55V297.41C1013.55 299.822 1014.05 301.641 1015.05 302.865C1016.05 304.053 1017.76 304.646 1020.17 304.646C1021.36 304.646 1022.99 304.424 1025.07 303.979V312.328C1022.36 313.07 1019.72 313.441 1017.16 313.441C1012.56 313.441 1009.09 312.05 1006.75 309.267C1004.42 306.483 1003.25 302.531 1003.25 297.41V260.06H992.282V252.1H1003.25V237.516H1013.55ZM1074.05 312.328C1073.46 311.141 1072.98 309.025 1072.61 305.982C1067.82 310.955 1062.1 313.441 1055.46 313.441C1049.52 313.441 1044.64 311.771 1040.82 308.432C1037.04 305.055 1035.14 300.787 1035.14 295.629C1035.14 289.357 1037.52 284.496 1042.27 281.045C1047.06 277.557 1053.77 275.812 1062.42 275.812H1072.44V271.081C1072.44 267.481 1071.36 264.624 1069.21 262.509C1067.06 260.356 1063.88 259.28 1059.69 259.28C1056.02 259.28 1052.94 260.208 1050.45 262.063C1047.96 263.919 1046.72 266.164 1046.72 268.799H1036.37C1036.37 265.793 1037.43 262.898 1039.54 260.115C1041.69 257.295 1044.59 255.068 1048.22 253.436C1051.9 251.803 1055.92 250.986 1060.3 250.986C1067.24 250.986 1072.68 252.73 1076.61 256.219C1080.55 259.67 1082.59 264.438 1082.74 270.524V298.245C1082.74 303.774 1083.44 308.172 1084.85 311.438V312.328H1074.05ZM1056.96 304.479C1060.19 304.479 1063.25 303.645 1066.15 301.975C1069.04 300.305 1071.14 298.134 1072.44 295.462V283.104H1064.37C1051.75 283.104 1045.44 286.797 1045.44 294.182C1045.44 297.41 1046.52 299.934 1048.67 301.752C1050.82 303.57 1053.59 304.479 1056.96 304.479ZM1127.99 261.34C1126.43 261.08 1124.74 260.95 1122.93 260.95C1116.17 260.95 1111.59 263.826 1109.18 269.578V312.328H1098.88V252.1H1108.9L1109.07 259.058C1112.44 253.677 1117.23 250.986 1123.43 250.986C1125.43 250.986 1126.95 251.246 1127.99 251.766V261.34ZM1154.26 237.516V252.1H1165.51V260.06H1154.26V297.41C1154.26 299.822 1154.77 301.641 1155.77 302.865C1156.77 304.053 1158.48 304.646 1160.89 304.646C1162.08 304.646 1163.71 304.424 1165.79 303.979V312.328C1163.08 313.07 1160.44 313.441 1157.88 313.441C1153.28 313.441 1149.81 312.05 1147.47 309.267C1145.14 306.483 1143.97 302.531 1143.97 297.41V260.06H1133V252.1H1143.97V237.516H1154.26ZM1240.93 296.353C1240.93 293.569 1239.88 291.417 1237.76 289.896C1235.68 288.337 1232.03 287.001 1226.79 285.888C1221.6 284.774 1217.46 283.438 1214.38 281.88C1211.34 280.321 1209.08 278.466 1207.59 276.313C1206.14 274.161 1205.42 271.601 1205.42 268.632C1205.42 263.696 1207.5 259.521 1211.65 256.107C1215.85 252.693 1221.19 250.986 1227.69 250.986C1234.51 250.986 1240.04 252.749 1244.27 256.274C1248.54 259.8 1250.67 264.309 1250.67 269.801H1240.32C1240.32 266.98 1239.12 264.55 1236.7 262.509C1234.33 260.468 1231.32 259.447 1227.69 259.447C1223.94 259.447 1221.01 260.264 1218.89 261.896C1216.78 263.529 1215.72 265.663 1215.72 268.298C1215.72 270.784 1216.7 272.658 1218.67 273.92C1220.63 275.182 1224.18 276.388 1229.3 277.538C1234.46 278.688 1238.63 280.062 1241.82 281.657C1245.02 283.253 1247.37 285.183 1248.89 287.446C1250.45 289.673 1251.23 292.4 1251.23 295.629C1251.23 301.01 1249.08 305.333 1244.77 308.599C1240.47 311.827 1234.88 313.441 1228.02 313.441C1223.2 313.441 1218.93 312.588 1215.22 310.881C1211.51 309.174 1208.59 306.799 1206.48 303.756C1204.4 300.676 1203.36 297.354 1203.36 293.792H1213.66C1213.84 297.243 1215.22 299.989 1217.78 302.03C1220.38 304.034 1223.79 305.036 1228.02 305.036C1231.92 305.036 1235.03 304.257 1237.37 302.698C1239.75 301.103 1240.93 298.987 1240.93 296.353ZM1274.33 252.1L1274.61 258.779C1279.03 253.584 1284.98 250.986 1292.48 250.986C1300.9 250.986 1306.64 254.215 1309.68 260.672C1311.68 257.777 1314.28 255.439 1317.47 253.658C1320.7 251.877 1324.5 250.986 1328.88 250.986C1342.09 250.986 1348.81 257.981 1349.03 271.972V312.328H1338.74V272.584C1338.74 268.279 1337.75 265.069 1335.79 262.954C1333.82 260.802 1330.52 259.726 1325.88 259.726C1322.05 259.726 1318.88 260.876 1316.36 263.177C1313.83 265.44 1312.37 268.502 1311.96 272.361V312.328H1301.61V272.862C1301.61 264.104 1297.32 259.726 1288.75 259.726C1282 259.726 1277.38 262.602 1274.89 268.354V312.328H1264.59V252.1H1274.33ZM1401.8 312.328C1401.21 311.141 1400.73 309.025 1400.36 305.982C1395.57 310.955 1389.85 313.441 1383.21 313.441C1377.27 313.441 1372.39 311.771 1368.57 308.432C1364.79 305.055 1362.89 300.787 1362.89 295.629C1362.89 289.357 1365.27 284.496 1370.02 281.045C1374.81 277.557 1381.52 275.812 1390.17 275.812H1400.19V271.081C1400.19 267.481 1399.11 264.624 1396.96 262.509C1394.81 260.356 1391.63 259.28 1387.44 259.28C1383.77 259.28 1380.69 260.208 1378.2 262.063C1375.71 263.919 1374.47 266.164 1374.47 268.799H1364.12C1364.12 265.793 1365.18 262.898 1367.29 260.115C1369.44 257.295 1372.34 255.068 1375.97 253.436C1379.65 251.803 1383.67 250.986 1388.05 250.986C1394.99 250.986 1400.43 252.73 1404.36 256.219C1408.3 259.67 1410.34 264.438 1410.49 270.524V298.245C1410.49 303.774 1411.19 308.172 1412.6 311.438V312.328H1401.8ZM1384.71 304.479C1387.94 304.479 1391 303.645 1393.9 301.975C1396.79 300.305 1398.89 298.134 1400.19 295.462V283.104H1392.12C1379.5 283.104 1373.19 286.797 1373.19 294.182C1373.19 297.41 1374.27 299.934 1376.42 301.752C1378.57 303.57 1381.34 304.479 1384.71 304.479ZM1437.82 312.328H1427.52V226.828H1437.82V312.328ZM1465.54 312.328H1455.24V226.828H1465.54V312.328ZM1482.29 306.929C1482.29 305.147 1482.81 303.663 1483.85 302.476C1484.93 301.288 1486.52 300.694 1488.64 300.694C1490.75 300.694 1492.35 301.288 1493.43 302.476C1494.54 303.663 1495.1 305.147 1495.1 306.929C1495.1 308.636 1494.54 310.064 1493.43 311.215C1492.35 312.365 1490.75 312.94 1488.64 312.94C1486.52 312.94 1484.93 312.365 1483.85 311.215C1482.81 310.064 1482.29 308.636 1482.29 306.929Z" fill="black"/>
</g>
<g clip-path="url(#clip2_1_1748)">
<path d="M-229.521 442.1L-229.243 448.779C-224.827 443.584 -218.871 440.986 -211.375 440.986C-202.951 440.986 -197.218 444.215 -194.175 450.672C-192.171 447.777 -189.573 445.439 -186.382 443.658C-183.153 441.877 -179.35 440.986 -174.971 440.986C-161.76 440.986 -155.043 447.981 -154.82 461.972V502.328H-165.118V462.584C-165.118 458.279 -166.102 455.069 -168.068 452.954C-170.035 450.802 -173.338 449.726 -177.977 449.726C-181.799 449.726 -184.972 450.876 -187.495 453.177C-190.019 455.44 -191.484 458.502 -191.893 462.361V502.328H-202.246V462.862C-202.246 454.104 -206.532 449.726 -215.104 449.726C-221.858 449.726 -226.479 452.602 -228.965 458.354V502.328H-239.263V442.1H-229.521ZM-141.962 471.657C-141.962 465.757 -140.812 460.45 -138.511 455.737C-136.173 451.024 -132.944 447.388 -128.825 444.827C-124.669 442.267 -119.938 440.986 -114.631 440.986C-106.43 440.986 -99.8057 443.825 -94.7588 449.503C-89.6748 455.181 -87.1328 462.732 -87.1328 472.158V472.882C-87.1328 478.745 -88.2646 484.015 -90.5283 488.69C-92.7549 493.329 -95.9648 496.947 -100.158 499.545C-104.314 502.143 -109.102 503.441 -114.52 503.441C-122.684 503.441 -129.308 500.603 -134.392 494.925C-139.438 489.247 -141.962 481.732 -141.962 472.381V471.657ZM-131.608 472.882C-131.608 479.562 -130.068 484.924 -126.988 488.969C-123.871 493.014 -119.715 495.036 -114.52 495.036C-109.287 495.036 -105.131 492.995 -102.051 488.913C-98.9707 484.794 -97.4307 479.042 -97.4307 471.657C-97.4307 465.052 -99.0078 459.708 -102.162 455.626C-105.279 451.507 -109.436 449.447 -114.631 449.447C-119.715 449.447 -123.815 451.47 -126.933 455.515C-130.05 459.56 -131.608 465.349 -131.608 472.882ZM-55.2373 488.356L-40.3193 442.1H-29.7988L-51.3965 502.328H-59.2451L-81.0654 442.1H-70.5449L-55.2373 488.356ZM4.32324 503.441C-3.84082 503.441 -10.4834 500.77 -15.6045 495.426C-20.7256 490.045 -23.2861 482.864 -23.2861 473.884V471.991C-23.2861 466.017 -22.1543 460.691 -19.8906 456.016C-17.5898 451.303 -14.3984 447.629 -10.3164 444.994C-6.19727 442.322 -1.74414 440.986 3.04297 440.986C10.873 440.986 16.959 443.565 21.3008 448.724C25.6426 453.882 27.8135 461.267 27.8135 470.878V475.164H-12.9883C-12.8398 481.102 -11.1143 485.907 -7.81152 489.581C-4.47168 493.218 -0.241211 495.036 4.87988 495.036C8.5166 495.036 11.5967 494.294 14.1201 492.81C16.6436 491.325 18.8516 489.358 20.7441 486.909L27.0342 491.808C21.9873 499.563 14.417 503.441 4.32324 503.441ZM3.04297 449.447C-1.11328 449.447 -4.60156 450.969 -7.42188 454.012C-10.2422 457.018 -11.9863 461.248 -12.6543 466.703H17.5156V465.924C17.2188 460.691 15.8086 456.646 13.2852 453.789C10.7617 450.895 7.34766 449.447 3.04297 449.447ZM103.127 486.353C103.127 483.569 102.069 481.417 99.9541 479.896C97.876 478.337 94.2207 477.001 88.9883 475.888C83.793 474.774 79.6553 473.438 76.5752 471.88C73.5322 470.321 71.2686 468.466 69.7842 466.313C68.3369 464.161 67.6133 461.601 67.6133 458.632C67.6133 453.696 69.6914 449.521 73.8477 446.107C78.041 442.693 83.3848 440.986 89.8789 440.986C96.707 440.986 102.236 442.749 106.467 446.274C110.734 449.8 112.868 454.309 112.868 459.801H102.515C102.515 456.98 101.309 454.55 98.8965 452.509C96.5215 450.468 93.5156 449.447 89.8789 449.447C86.1309 449.447 83.1992 450.264 81.084 451.896C78.9688 453.529 77.9111 455.663 77.9111 458.298C77.9111 460.784 78.8945 462.658 80.8613 463.92C82.8281 465.182 86.3721 466.388 91.4932 467.538C96.6514 468.688 100.826 470.062 104.018 471.657C107.209 473.253 109.565 475.183 111.087 477.446C112.646 479.673 113.425 482.4 113.425 485.629C113.425 491.01 111.272 495.333 106.968 498.599C102.663 501.827 97.0781 503.441 90.2129 503.441C85.3887 503.441 81.1211 502.588 77.4102 500.881C73.6992 499.174 70.7861 496.799 68.6709 493.756C66.5928 490.676 65.5537 487.354 65.5537 483.792H75.8516C76.0371 487.243 77.4102 489.989 79.9707 492.03C82.5684 494.034 85.9824 495.036 90.2129 495.036C94.1094 495.036 97.2266 494.257 99.5645 492.698C101.939 491.103 103.127 488.987 103.127 486.353ZM136.525 442.1L136.804 448.779C141.22 443.584 147.176 440.986 154.672 440.986C163.096 440.986 168.829 444.215 171.872 450.672C173.876 447.777 176.474 445.439 179.665 443.658C182.894 441.877 186.697 440.986 191.076 440.986C204.287 440.986 211.004 447.981 211.227 461.972V502.328H200.929V462.584C200.929 458.279 199.945 455.069 197.979 452.954C196.012 450.802 192.709 449.726 188.07 449.726C184.248 449.726 181.075 450.876 178.552 453.177C176.028 455.44 174.562 458.502 174.154 462.361V502.328H163.801V462.862C163.801 454.104 159.515 449.726 150.942 449.726C144.188 449.726 139.568 452.602 137.082 458.354V502.328H126.784V442.1H136.525ZM263.996 502.328C263.402 501.141 262.92 499.025 262.549 495.982C257.762 500.955 252.047 503.441 245.404 503.441C239.467 503.441 234.587 501.771 230.765 498.432C226.979 495.055 225.087 490.787 225.087 485.629C225.087 479.357 227.462 474.496 232.212 471.045C236.999 467.557 243.716 465.812 252.362 465.812H262.382V461.081C262.382 457.481 261.306 454.624 259.153 452.509C257.001 450.356 253.828 449.28 249.635 449.28C245.961 449.28 242.881 450.208 240.395 452.063C237.908 453.919 236.665 456.164 236.665 458.799H226.312C226.312 455.793 227.369 452.898 229.484 450.115C231.637 447.295 234.531 445.068 238.168 443.436C241.842 441.803 245.868 440.986 250.247 440.986C257.187 440.986 262.623 442.73 266.557 446.219C270.49 449.67 272.531 454.438 272.68 460.524V488.245C272.68 493.774 273.385 498.172 274.795 501.438V502.328H263.996ZM246.907 494.479C250.136 494.479 253.197 493.645 256.092 491.975C258.986 490.305 261.083 488.134 262.382 485.462V473.104H254.311C241.693 473.104 235.385 476.797 235.385 484.182C235.385 487.41 236.461 489.934 238.613 491.752C240.766 493.57 243.53 494.479 246.907 494.479ZM317.935 451.34C316.376 451.08 314.688 450.95 312.869 450.95C306.115 450.95 301.532 453.826 299.12 459.578V502.328H288.822V442.1H298.842L299.009 449.058C302.386 443.677 307.173 440.986 313.37 440.986C315.374 440.986 316.896 441.246 317.935 441.766V451.34ZM344.208 427.516V442.1H355.452V450.06H344.208V487.41C344.208 489.822 344.709 491.641 345.711 492.865C346.713 494.053 348.42 494.646 350.832 494.646C352.02 494.646 353.652 494.424 355.73 493.979V502.328C353.021 503.07 350.387 503.441 347.826 503.441C343.225 503.441 339.755 502.05 337.417 499.267C335.079 496.483 333.91 492.531 333.91 487.41V450.06H322.944V442.1H333.91V427.516H344.208ZM367.754 496.929C367.754 495.147 368.273 493.663 369.312 492.476C370.389 491.288 371.984 490.694 374.1 490.694C376.215 490.694 377.811 491.288 378.887 492.476C380 493.663 380.557 495.147 380.557 496.929C380.557 498.636 380 500.064 378.887 501.215C377.811 502.365 376.215 502.94 374.1 502.94C371.984 502.94 370.389 502.365 369.312 501.215C368.273 500.064 367.754 498.636 367.754 496.929Z" fill="#888888"/>
<path d="M489.479 442.1L489.757 448.779C494.173 443.584 500.129 440.986 507.625 440.986C516.049 440.986 521.782 444.215 524.825 450.672C526.829 447.777 529.427 445.439 532.618 443.658C535.847 441.877 539.65 440.986 544.029 440.986C557.24 440.986 563.957 447.981 564.18 461.972V502.328H553.882V462.584C553.882 458.279 552.898 455.069 550.932 452.954C548.965 450.802 545.662 449.726 541.023 449.726C537.201 449.726 534.028 450.876 531.505 453.177C528.981 455.44 527.516 458.502 527.107 462.361V502.328H516.754V462.862C516.754 454.104 512.468 449.726 503.896 449.726C497.142 449.726 492.521 452.602 490.035 458.354V502.328H479.737V442.1H489.479ZM577.038 471.657C577.038 465.757 578.188 460.45 580.489 455.737C582.827 451.024 586.056 447.388 590.175 444.827C594.331 442.267 599.062 440.986 604.369 440.986C612.57 440.986 619.194 443.825 624.241 449.503C629.325 455.181 631.867 462.732 631.867 472.158V472.882C631.867 478.745 630.735 484.015 628.472 488.69C626.245 493.329 623.035 496.947 618.842 499.545C614.686 502.143 609.898 503.441 604.48 503.441C596.316 503.441 589.692 500.603 584.608 494.925C579.562 489.247 577.038 481.732 577.038 472.381V471.657ZM587.392 472.882C587.392 479.562 588.932 484.924 592.012 488.969C595.129 493.014 599.285 495.036 604.48 495.036C609.713 495.036 613.869 492.995 616.949 488.913C620.029 484.794 621.569 479.042 621.569 471.657C621.569 465.052 619.992 459.708 616.838 455.626C613.721 451.507 609.564 449.447 604.369 449.447C599.285 449.447 595.185 451.47 592.067 455.515C588.95 459.56 587.392 465.349 587.392 472.882ZM663.763 488.356L678.681 442.1H689.201L667.604 502.328H659.755L637.935 442.1H648.455L663.763 488.356ZM723.323 503.441C715.159 503.441 708.517 500.77 703.396 495.426C698.274 490.045 695.714 482.864 695.714 473.884V471.991C695.714 466.017 696.846 460.691 699.109 456.016C701.41 451.303 704.602 447.629 708.684 444.994C712.803 442.322 717.256 440.986 722.043 440.986C729.873 440.986 735.959 443.565 740.301 448.724C744.643 453.882 746.813 461.267 746.813 470.878V475.164H706.012C706.16 481.102 707.886 485.907 711.188 489.581C714.528 493.218 718.759 495.036 723.88 495.036C727.517 495.036 730.597 494.294 733.12 492.81C735.644 491.325 737.852 489.358 739.744 486.909L746.034 491.808C740.987 499.563 733.417 503.441 723.323 503.441ZM722.043 449.447C717.887 449.447 714.398 450.969 711.578 454.012C708.758 457.018 707.014 461.248 706.346 466.703H736.516V465.924C736.219 460.691 734.809 456.646 732.285 453.789C729.762 450.895 726.348 449.447 722.043 449.447ZM822.127 486.353C822.127 483.569 821.069 481.417 818.954 479.896C816.876 478.337 813.221 477.001 807.988 475.888C802.793 474.774 798.655 473.438 795.575 471.88C792.532 470.321 790.269 468.466 788.784 466.313C787.337 464.161 786.613 461.601 786.613 458.632C786.613 453.696 788.691 449.521 792.848 446.107C797.041 442.693 802.385 440.986 808.879 440.986C815.707 440.986 821.236 442.749 825.467 446.274C829.734 449.8 831.868 454.309 831.868 459.801H821.515C821.515 456.98 820.309 454.55 817.896 452.509C815.521 450.468 812.516 449.447 808.879 449.447C805.131 449.447 802.199 450.264 800.084 451.896C797.969 453.529 796.911 455.663 796.911 458.298C796.911 460.784 797.895 462.658 799.861 463.92C801.828 465.182 805.372 466.388 810.493 467.538C815.651 468.688 819.826 470.062 823.018 471.657C826.209 473.253 828.565 475.183 830.087 477.446C831.646 479.673 832.425 482.4 832.425 485.629C832.425 491.01 830.272 495.333 825.968 498.599C821.663 501.827 816.078 503.441 809.213 503.441C804.389 503.441 800.121 502.588 796.41 500.881C792.699 499.174 789.786 496.799 787.671 493.756C785.593 490.676 784.554 487.354 784.554 483.792H794.852C795.037 487.243 796.41 489.989 798.971 492.03C801.568 494.034 804.982 495.036 809.213 495.036C813.109 495.036 816.227 494.257 818.564 492.698C820.939 491.103 822.127 488.987 822.127 486.353ZM855.525 442.1L855.804 448.779C860.22 443.584 866.176 440.986 873.672 440.986C882.096 440.986 887.829 444.215 890.872 450.672C892.876 447.777 895.474 445.439 898.665 443.658C901.894 441.877 905.697 440.986 910.076 440.986C923.287 440.986 930.004 447.981 930.227 461.972V502.328H919.929V462.584C919.929 458.279 918.945 455.069 916.979 452.954C915.012 450.802 911.709 449.726 907.07 449.726C903.248 449.726 900.075 450.876 897.552 453.177C895.028 455.44 893.562 458.502 893.154 462.361V502.328H882.801V462.862C882.801 454.104 878.515 449.726 869.942 449.726C863.188 449.726 858.568 452.602 856.082 458.354V502.328H845.784V442.1H855.525ZM982.996 502.328C982.402 501.141 981.92 499.025 981.549 495.982C976.762 500.955 971.047 503.441 964.404 503.441C958.467 503.441 953.587 501.771 949.765 498.432C945.979 495.055 944.087 490.787 944.087 485.629C944.087 479.357 946.462 474.496 951.212 471.045C955.999 467.557 962.716 465.812 971.362 465.812H981.382V461.081C981.382 457.481 980.306 454.624 978.153 452.509C976.001 450.356 972.828 449.28 968.635 449.28C964.961 449.28 961.881 450.208 959.395 452.063C956.908 453.919 955.665 456.164 955.665 458.799H945.312C945.312 455.793 946.369 452.898 948.484 450.115C950.637 447.295 953.531 445.068 957.168 443.436C960.842 441.803 964.868 440.986 969.247 440.986C976.187 440.986 981.623 442.73 985.557 446.219C989.49 449.67 991.531 454.438 991.68 460.524V488.245C991.68 493.774 992.385 498.172 993.795 501.438V502.328H982.996ZM965.907 494.479C969.136 494.479 972.197 493.645 975.092 491.975C977.986 490.305 980.083 488.134 981.382 485.462V473.104H973.311C960.693 473.104 954.385 476.797 954.385 484.182C954.385 487.41 955.461 489.934 957.613 491.752C959.766 493.57 962.53 494.479 965.907 494.479ZM1036.93 451.34C1035.38 451.08 1033.69 450.95 1031.87 450.95C1025.12 450.95 1020.53 453.826 1018.12 459.578V502.328H1007.82V442.1H1017.84L1018.01 449.058C1021.39 443.677 1026.17 440.986 1032.37 440.986C1034.37 440.986 1035.9 441.246 1036.93 441.766V451.34ZM1063.21 427.516V442.1H1074.45V450.06H1063.21V487.41C1063.21 489.822 1063.71 491.641 1064.71 492.865C1065.71 494.053 1067.42 494.646 1069.83 494.646C1071.02 494.646 1072.65 494.424 1074.73 493.979V502.328C1072.02 503.07 1069.39 503.441 1066.83 503.441C1062.22 503.441 1058.75 502.05 1056.42 499.267C1054.08 496.483 1052.91 492.531 1052.91 487.41V450.06H1041.94V442.1H1052.91V427.516H1063.21ZM1086.75 496.929C1086.75 495.147 1087.27 493.663 1088.31 492.476C1089.39 491.288 1090.98 490.694 1093.1 490.694C1095.21 490.694 1096.81 491.288 1097.89 492.476C1099 493.663 1099.56 495.147 1099.56 496.929C1099.56 498.636 1099 500.064 1097.89 501.215C1096.81 502.365 1095.21 502.94 1093.1 502.94C1090.98 502.94 1089.39 502.365 1088.31 501.215C1087.27 500.064 1086.75 498.636 1086.75 496.929Z" fill="#888888"/>
<path d="M1208.48 442.1L1208.76 448.779C1213.17 443.584 1219.13 440.986 1226.62 440.986C1235.05 440.986 1240.78 444.215 1243.83 450.672C1245.83 447.777 1248.43 445.439 1251.62 443.658C1254.85 441.877 1258.65 440.986 1263.03 440.986C1276.24 440.986 1282.96 447.981 1283.18 461.972V502.328H1272.88V462.584C1272.88 458.279 1271.9 455.069 1269.93 452.954C1267.96 450.802 1264.66 449.726 1260.02 449.726C1256.2 449.726 1253.03 450.876 1250.5 453.177C1247.98 455.44 1246.52 458.502 1246.11 462.361V502.328H1235.75V462.862C1235.75 454.104 1231.47 449.726 1222.9 449.726C1216.14 449.726 1211.52 452.602 1209.04 458.354V502.328H1198.74V442.1H1208.48ZM1296.04 471.657C1296.04 465.757 1297.19 460.45 1299.49 455.737C1301.83 451.024 1305.06 447.388 1309.17 444.827C1313.33 442.267 1318.06 440.986 1323.37 440.986C1331.57 440.986 1338.19 443.825 1343.24 449.503C1348.33 455.181 1350.87 462.732 1350.87 472.158V472.882C1350.87 478.745 1349.74 484.015 1347.47 488.69C1345.25 493.329 1342.04 496.947 1337.84 499.545C1333.69 502.143 1328.9 503.441 1323.48 503.441C1315.32 503.441 1308.69 500.603 1303.61 494.925C1298.56 489.247 1296.04 481.732 1296.04 472.381V471.657ZM1306.39 472.882C1306.39 479.562 1307.93 484.924 1311.01 488.969C1314.13 493.014 1318.29 495.036 1323.48 495.036C1328.71 495.036 1332.87 492.995 1335.95 488.913C1339.03 484.794 1340.57 479.042 1340.57 471.657C1340.57 465.052 1338.99 459.708 1335.84 455.626C1332.72 451.507 1328.56 449.447 1323.37 449.447C1318.29 449.447 1314.18 451.47 1311.07 455.515C1307.95 459.56 1306.39 465.349 1306.39 472.882ZM1382.76 488.356L1397.68 442.1H1408.2L1386.6 502.328H1378.75L1356.93 442.1H1367.46L1382.76 488.356ZM1442.32 503.441C1434.16 503.441 1427.52 500.77 1422.4 495.426C1417.27 490.045 1414.71 482.864 1414.71 473.884V471.991C1414.71 466.017 1415.85 460.691 1418.11 456.016C1420.41 451.303 1423.6 447.629 1427.68 444.994C1431.8 442.322 1436.26 440.986 1441.04 440.986C1448.87 440.986 1454.96 443.565 1459.3 448.724C1463.64 453.882 1465.81 461.267 1465.81 470.878V475.164H1425.01C1425.16 481.102 1426.89 485.907 1430.19 489.581C1433.53 493.218 1437.76 495.036 1442.88 495.036C1446.52 495.036 1449.6 494.294 1452.12 492.81C1454.64 491.325 1456.85 489.358 1458.74 486.909L1465.03 491.808C1459.99 499.563 1452.42 503.441 1442.32 503.441ZM1441.04 449.447C1436.89 449.447 1433.4 450.969 1430.58 454.012C1427.76 457.018 1426.01 461.248 1425.35 466.703H1455.52V465.924C1455.22 460.691 1453.81 456.646 1451.29 453.789C1448.76 450.895 1445.35 449.447 1441.04 449.447ZM1541.13 486.353C1541.13 483.569 1540.07 481.417 1537.95 479.896C1535.88 478.337 1532.22 477.001 1526.99 475.888C1521.79 474.774 1517.66 473.438 1514.58 471.88C1511.53 470.321 1509.27 468.466 1507.78 466.313C1506.34 464.161 1505.61 461.601 1505.61 458.632C1505.61 453.696 1507.69 449.521 1511.85 446.107C1516.04 442.693 1521.38 440.986 1527.88 440.986C1534.71 440.986 1540.24 442.749 1544.47 446.274C1548.73 449.8 1550.87 454.309 1550.87 459.801H1540.51C1540.51 456.98 1539.31 454.55 1536.9 452.509C1534.52 450.468 1531.52 449.447 1527.88 449.447C1524.13 449.447 1521.2 450.264 1519.08 451.896C1516.97 453.529 1515.91 455.663 1515.91 458.298C1515.91 460.784 1516.89 462.658 1518.86 463.92C1520.83 465.182 1524.37 466.388 1529.49 467.538C1534.65 468.688 1538.83 470.062 1542.02 471.657C1545.21 473.253 1547.57 475.183 1549.09 477.446C1550.65 479.673 1551.42 482.4 1551.42 485.629C1551.42 491.01 1549.27 495.333 1544.97 498.599C1540.66 501.827 1535.08 503.441 1528.21 503.441C1523.39 503.441 1519.12 502.588 1515.41 500.881C1511.7 499.174 1508.79 496.799 1506.67 493.756C1504.59 490.676 1503.55 487.354 1503.55 483.792H1513.85C1514.04 487.243 1515.41 489.989 1517.97 492.03C1520.57 494.034 1523.98 495.036 1528.21 495.036C1532.11 495.036 1535.23 494.257 1537.56 492.698C1539.94 491.103 1541.13 488.987 1541.13 486.353ZM1574.53 442.1L1574.8 448.779C1579.22 443.584 1585.18 440.986 1592.67 440.986C1601.1 440.986 1606.83 444.215 1609.87 450.672C1611.88 447.777 1614.47 445.439 1617.67 443.658C1620.89 441.877 1624.7 440.986 1629.08 440.986C1642.29 440.986 1649 447.981 1649.23 461.972V502.328H1638.93V462.584C1638.93 458.279 1637.95 455.069 1635.98 452.954C1634.01 450.802 1630.71 449.726 1626.07 449.726C1622.25 449.726 1619.08 450.876 1616.55 453.177C1614.03 455.44 1612.56 458.502 1612.15 462.361V502.328H1601.8V462.862C1601.8 454.104 1597.51 449.726 1588.94 449.726C1582.19 449.726 1577.57 452.602 1575.08 458.354V502.328H1564.78V442.1H1574.53ZM1702 502.328C1701.4 501.141 1700.92 499.025 1700.55 495.982C1695.76 500.955 1690.05 503.441 1683.4 503.441C1677.47 503.441 1672.59 501.771 1668.76 498.432C1664.98 495.055 1663.09 490.787 1663.09 485.629C1663.09 479.357 1665.46 474.496 1670.21 471.045C1675 467.557 1681.72 465.812 1690.36 465.812H1700.38V461.081C1700.38 457.481 1699.31 454.624 1697.15 452.509C1695 450.356 1691.83 449.28 1687.63 449.28C1683.96 449.28 1680.88 450.208 1678.39 452.063C1675.91 453.919 1674.67 456.164 1674.67 458.799H1664.31C1664.31 455.793 1665.37 452.898 1667.48 450.115C1669.64 447.295 1672.53 445.068 1676.17 443.436C1679.84 441.803 1683.87 440.986 1688.25 440.986C1695.19 440.986 1700.62 442.73 1704.56 446.219C1708.49 449.67 1710.53 454.438 1710.68 460.524V488.245C1710.68 493.774 1711.38 498.172 1712.79 501.438V502.328H1702ZM1684.91 494.479C1688.14 494.479 1691.2 493.645 1694.09 491.975C1696.99 490.305 1699.08 488.134 1700.38 485.462V473.104H1692.31C1679.69 473.104 1673.38 476.797 1673.38 484.182C1673.38 487.41 1674.46 489.934 1676.61 491.752C1678.77 493.57 1681.53 494.479 1684.91 494.479ZM1755.93 451.34C1754.38 451.08 1752.69 450.95 1750.87 450.95C1744.12 450.95 1739.53 453.826 1737.12 459.578V502.328H1726.82V442.1H1736.84L1737.01 449.058C1740.39 443.677 1745.17 440.986 1751.37 440.986C1753.37 440.986 1754.9 441.246 1755.93 441.766V451.34ZM1782.21 427.516V442.1H1793.45V450.06H1782.21V487.41C1782.21 489.822 1782.71 491.641 1783.71 492.865C1784.71 494.053 1786.42 494.646 1788.83 494.646C1790.02 494.646 1791.65 494.424 1793.73 493.979V502.328C1791.02 503.07 1788.39 503.441 1785.83 503.441C1781.22 503.441 1777.75 502.05 1775.42 499.267C1773.08 496.483 1771.91 492.531 1771.91 487.41V450.06H1760.94V442.1H1771.91V427.516H1782.21ZM1805.75 496.929C1805.75 495.147 1806.27 493.663 1807.31 492.476C1808.39 491.288 1809.98 490.694 1812.1 490.694C1814.21 490.694 1815.81 491.288 1816.89 492.476C1818 493.663 1818.56 495.147 1818.56 496.929C1818.56 498.636 1818 500.064 1816.89 501.215C1815.81 502.365 1814.21 502.94 1812.1 502.94C1809.98 502.94 1808.39 502.365 1807.31 501.215C1806.27 500.064 1805.75 498.636 1805.75 496.929Z" fill="black"/>
</g>
<defs>
<clipPath id="clip0_1_1748">
<rect width="1430" height="190" fill="white" transform="translate(5)"/>
</clipPath>
<clipPath id="clip1_1_1748">
<rect width="1430" height="190" fill="white" transform="translate(5 190)"/>
</clipPath>
<clipPath id="clip2_1_1748">
<rect width="1430" height="190" fill="white" transform="translate(5 380)"/>
</clipPath>
</defs>
</svg>
